<svg id="Camada_1" data-name="Camada 1" xmlns="http://www.w3.org/2000/svg" viewBox="0 0 454.37 437.91"><defs><style>.cls-1{fill:#b78c57;}</style></defs><title>Prancheta 1</title><path class="cls-1" d="M388.67,101.48,345.45,159.1,235.34,0l-112,163.65-44.71-62.2H17L173.87,324.23l61.37-91.7,67.69,91.7L447,101.48ZM291.55,230.09l-56.31-80-60.33,80-23.5-31L235.24,86.6l81.48,108.25Z"/><path class="cls-1" d="M77.06,438.25H60.17l-6.71-17.46H22.73l-6.35,17.46H-.09l30-76.88H46.27ZM48.47,407.84,37.88,379.31,27.5,407.84Z"/><path class="cls-1" d="M135.38,438.25,117,361.37h15.89l11.59,52.81,14.06-52.81H177l13.48,53.7,11.79-53.7h15.63l-18.67,76.88H182.79l-15.32-57.47-15.26,57.47Z"/><path class="cls-1" d="M334.35,438.25H317.46l-6.71-17.46H280l-6.34,17.46H257.21l29.94-76.88h16.42Zm-28.58-30.41-10.59-28.53-10.39,28.53Z"/><path class="cls-1" d="M379.88,438.25l26.27-40.11-23.81-36.77h18.15l15.42,24.7,15.1-24.7h18l-23.92,37.34,26.28,39.54H432.64l-17.05-26.58L398.5,438.25Z"/></svg>